#N canvas 189 70 862 565 10;
#X obj 59 393 d-out~;
#X obj 182 281 _bink;
#X obj 245 508 _serial;
#X msg 317 299 bang;
#X floatatom 346 371 5 0 0 0 - - -;
#X obj 317 277 route trigger;
#X obj 370 321 - 10;
#X obj 317 321 f 200;
#X msg 406 346 200;
#X obj 406 322 moses 0;
#X obj 284 371 pipe 0;
#X msg 284 445 3 \$1;
#X obj 459 274 _bink;
#X msg 486 368 1 \$1;
#X obj 486 337 min 0.07;
#X obj 547 40 t b b;
#X obj 547 87 del 5000;
#X obj 547 115 t b b;
#X obj 547 156 del 2500;
#X msg 511 10 bang;
#X obj 515 99 bng 15 250 50 0 empty empty empty 17 7 0 10 -262144 -1
-1;
#X obj 543 181 bng 15 250 50 0 empty empty empty 17 7 0 10 -262144
-1 -1;
#X obj 106 212 r biglight;
#X obj 371 218 r smalllight;
#X obj 474 115 s smalllight;
#X obj 586 180 s biglight;
#X obj 586 61 d-random 6500 11500;
#X obj 577 136 d-random 750 3000;
#X obj 459 295 *~ 0.05;
#X msg 459 240 level 1 \, attack 50 \, release 800 \, ontime 100 \,
pitch 2000 \, trigger;
#X msg 182 254 level 1 \, release 10 \, pitch 400 \, trigger;
#X connect 1 0 0 0;
#X connect 1 0 0 1;
#X connect 1 1 10 0;
#X connect 3 0 7 0;
#X connect 5 0 3 0;
#X connect 6 0 9 0;
#X connect 7 0 4 0;
#X connect 7 0 6 0;
#X connect 8 0 7 1;
#X connect 9 0 8 0;
#X connect 9 1 7 1;
#X connect 10 0 11 0;
#X connect 11 0 2 2;
#X connect 12 0 28 0;
#X connect 12 1 14 0;
#X connect 13 0 2 2;
#X connect 14 0 13 0;
#X connect 15 0 16 0;
#X connect 15 1 26 0;
#X connect 16 0 17 0;
#X connect 16 0 20 0;
#X connect 16 0 24 0;
#X connect 17 0 18 0;
#X connect 17 1 27 0;
#X connect 18 0 19 0;
#X connect 18 0 21 0;
#X connect 18 0 25 0;
#X connect 19 0 15 0;
#X connect 22 0 30 0;
#X connect 23 0 29 0;
#X connect 26 0 16 1;
#X connect 27 0 18 1;
#X connect 28 0 0 1;
#X connect 28 0 0 0;
#X connect 29 0 12 0;
#X connect 30 0 1 0;
#X connect 30 0 5 0;
