#N canvas 697 201 464 349 10;
#X obj 34 299 s~ background_l;
#X obj 173 299 s~ background_r;
#X obj 34 262 d-pan~ 0.4;
#X obj 173 266 d-pan~ 0.6;
#X obj 23 140 osc~ 80;
#X obj 62 177 *~;
#X obj 191 167 *~;
#X obj 126 237 *~;
#X obj 81 61 d-smooth~ 50;
#X obj 21 84 d-smooth~ 50;
#X obj 160 83 d-smooth~ 50;
#X obj 236 58 d-smooth~ 50;
#X obj 236 132 osc~ 40.5;
#X obj 154 131 osc~ 160.31;
#X obj 84 134 osc~ 40.21;
#X obj 123 185 *~ 0.4;
#X obj 132 206 *~ 0.2;
#X connect 2 0 0 0;
#X connect 3 0 1 0;
#X connect 4 0 5 0;
#X connect 4 0 2 0;
#X connect 4 0 16 0;
#X connect 5 0 2 0;
#X connect 5 0 7 0;
#X connect 6 0 3 0;
#X connect 6 0 7 1;
#X connect 7 0 2 0;
#X connect 7 0 3 0;
#X connect 12 0 6 1;
#X connect 13 0 3 0;
#X connect 13 0 6 0;
#X connect 13 0 15 0;
#X connect 14 0 5 1;
#X connect 15 0 2 0;
#X connect 16 0 3 0;
