#N canvas 190 96 563 586 10;
#X obj 42 -18 r osc_blip;
#X obj 42 133 unpack f f f;
#X obj 12 498 s~ blip_l;
#X obj 169 498 s~ blip_r;
#X obj 54 452 d-pan~ 0.5;
#X obj 199 412 *~;
#X msg 275 218 1;
#X msg 204 218 0;
#X obj 315 110 vsl 15 128 0 1 0 0 empty empty empty 0 -9 0 10 -262144
-1 -1 12700 1;
#X obj 343 110 vsl 15 128 1 100 1 0 empty empty empty 0 -9 0 10 -262144
-1 -1 6900 1;
#X obj 371 110 vsl 15 128 1 100 1 0 empty empty empty 0 -9 0 10 -262144
-1 -1 10900 1;
#X obj 399 110 vsl 15 128 0 1 0 0 empty empty empty 0 -9 0 10 -262144
-1 -1 8200 1;
#X obj 428 110 vsl 15 128 10 1000 1 0 empty empty empty 0 -9 0 10 -262144
-1 -1 6000 1;
#X floatatom 309 248 5 0 0 0 - - -;
#X floatatom 338 261 5 0 0 0 - - -;
#X floatatom 366 244 5 0 0 0 - - -;
#X floatatom 393 261 5 0 0 0 - - -;
#X floatatom 437 250 5 0 0 0 - - -;
#X text 304 86 level;
#X text 346 86 A;
#X text 376 86 D;
#X text 403 86 S;
#X text 432 87 R;
#X obj 174 183 bng 15 250 50 0 empty empty empty 17 7 0 10 -262144
-1 -1;
#X msg 405 323 bang;
#X obj 300 322 d-lin-to-exp~;
#X obj 42 28 routeOSC /target /trigger;
#X obj 443 411 pink~;
#X obj 164 90 bng 15 250 50 0 empty empty empty 17 7 0 10 -262144 -1
-1;
#X obj 214 385 *~ 1;
#X obj 300 345 d-graph~ 0 1 10000;
#X obj 174 155 del 35;
#X obj 300 295 d-adsr4~ 12.2 8.5 0.826 49.3;
#X obj 131 283 *~;
#X obj 223 50 metro 500;
#X obj 230 25 bng 15 250 50 0 empty empty empty 17 7 0 10 -262144 -1
-1;
#X obj 70 201 vsl 15 128 160 16000 1 0 empty empty empty 0 -9 0 10
-262144 -1 -1 5120 1;
#X floatatom 73 350 5 0 0 0 - - -;
#X obj 128 221 d-smooth~;
#X msg 257 23 stop;
#X obj 143 322 *~ 1;
#X obj 137 242 osc~ 2048;
#X obj 172 262 phasor~ 2048.1;
#X obj 115 90 bang;
#X obj 111 62 pipe 50;
#X connect 0 0 26 0;
#X connect 1 2 4 1;
#X connect 4 0 2 0;
#X connect 4 1 3 0;
#X connect 5 0 4 0;
#X connect 6 0 24 0;
#X connect 6 0 32 0;
#X connect 7 0 32 0;
#X connect 8 0 13 0;
#X connect 8 0 29 1;
#X connect 9 0 14 0;
#X connect 9 0 32 1;
#X connect 10 0 15 0;
#X connect 10 0 32 2;
#X connect 11 0 16 0;
#X connect 11 0 32 3;
#X connect 12 0 17 0;
#X connect 12 0 32 4;
#X connect 23 0 7 0;
#X connect 24 0 30 1;
#X connect 25 0 29 0;
#X connect 25 0 30 0;
#X connect 26 0 1 0;
#X connect 26 1 44 0;
#X connect 28 0 43 0;
#X connect 29 0 5 1;
#X connect 31 0 23 0;
#X connect 32 0 25 0;
#X connect 33 0 40 0;
#X connect 34 0 43 0;
#X connect 35 0 34 0;
#X connect 36 0 37 0;
#X connect 36 0 38 0;
#X connect 38 0 41 0;
#X connect 39 0 34 0;
#X connect 40 0 5 0;
#X connect 41 0 33 0;
#X connect 41 0 40 0;
#X connect 42 0 33 1;
#X connect 42 0 40 0;
#X connect 43 0 6 0;
#X connect 43 0 31 0;
#X connect 44 0 43 0;
