#N canvas 693 74 488 387 10;
#X obj 81 91 inlet;
#X obj 141 220 pack 1 f;
#X obj 81 130 sel 0 1;
#X obj 114 158 t b b;
#X obj 91 258 del;
#X obj 296 62 inlet;
#X obj 366 62 inlet;
#X obj 246 62 inlet;
#X obj 186 62 inlet;
#X obj 91 356 s decay;
#X obj 210 126 r decay;
#X obj 237 220 pack f f;
#X obj 237 195 f;
#X obj 368 222 pack 0 f;
#X obj 311 124 r release;
#X obj 186 92 f \$1;
#X obj 246 92 f \$2;
#X obj 296 92 f \$3;
#X obj 366 92 f \$4;
#X obj 237 352 outlet~;
#X text 186 33 A;
#X text 249 32 D;
#X text 296 32 S;
#X text 361 32 R;
#X obj 80 23 loadbang;
#X obj 368 348 outlet;
#X obj 25 213 s release;
#X msg 82 186 stop;
#X obj 51 159 t b b b;
#X obj 237 276 line~;
#X obj 368 276 line;
#X obj 210 149 t b b;
#X obj 210 172 del;
#X obj 210 195 f;
#X msg 83 285 0;
#X msg 51 254 1;
#X obj 38 309 spigot 1;
#X text 12 328 above deals with premature release;
#X connect 0 0 2 0;
#X connect 1 0 29 0;
#X connect 1 0 30 0;
#X connect 2 0 28 0;
#X connect 2 1 3 0;
#X connect 3 0 4 0;
#X connect 3 1 1 0;
#X connect 4 0 9 0;
#X connect 4 0 34 0;
#X connect 5 0 17 0;
#X connect 6 0 18 0;
#X connect 7 0 16 0;
#X connect 8 0 15 0;
#X connect 10 0 31 0;
#X connect 11 0 29 0;
#X connect 11 0 30 0;
#X connect 12 0 11 0;
#X connect 13 0 29 0;
#X connect 13 0 30 0;
#X connect 14 0 13 0;
#X connect 15 0 1 1;
#X connect 15 0 4 1;
#X connect 16 0 11 1;
#X connect 16 0 32 1;
#X connect 17 0 12 1;
#X connect 17 0 33 1;
#X connect 18 0 13 1;
#X connect 24 0 15 0;
#X connect 24 0 16 0;
#X connect 24 0 17 0;
#X connect 24 0 18 0;
#X connect 27 0 4 0;
#X connect 27 0 32 0;
#X connect 28 0 26 0;
#X connect 28 0 35 0;
#X connect 28 1 36 0;
#X connect 28 2 27 0;
#X connect 29 0 19 0;
#X connect 30 0 25 0;
#X connect 31 0 32 0;
#X connect 31 1 12 0;
#X connect 32 0 33 0;
#X connect 33 0 29 0;
#X connect 34 0 36 1;
#X connect 35 0 36 1;
#X connect 36 0 9 0;
