#N canvas 200 109 476 572 10;
#X obj 95 234 r~ blip_r;
#X obj 29 234 r~ blip_l;
#X obj 29 448 d-out~;
#X obj 29 268 *~;
#X obj 152 272 *~;
#X obj 163 236 d-smooth~;
#X obj 186 69 vsl 15 128 0 1 0 0 empty empty empty 0 -9 0 10 -262144
-1 -1 7020 1;
#X msg 186 44 0.6;
#X obj 284 11 loadbang;
#X obj 259 308 *~;
#X obj 382 312 *~;
#X obj 393 276 d-smooth~;
#X obj 212 276 r~ delaunay_l;
#X obj 302 276 r~ delaunay_r;
#X obj 276 69 vsl 15 128 0 1 0 0 empty empty empty 0 -9 0 10 -262144
-1 -1 7620 1;
#X msg 276 44 0.6;
#X text 276 205 delaunay;
#X text 186 205 blip;
#X text 100 146 Volumes;
#X obj 199 418 *~;
#X obj 322 422 *~;
#X obj 345 386 d-smooth~;
#X obj 142 386 r~ background_l;
#X obj 243 386 r~ background_r;
#X obj 376 69 vsl 15 128 0 1 0 0 empty empty empty 0 -9 0 10 -262144
-1 -1 2520 1;
#X msg 376 44 0.6;
#X text 376 205 background;
#X connect 0 0 4 0;
#X connect 1 0 3 0;
#X connect 3 0 2 0;
#X connect 4 0 2 1;
#X connect 5 0 4 1;
#X connect 5 0 3 1;
#X connect 6 0 5 0;
#X connect 7 0 6 0;
#X connect 8 0 7 0;
#X connect 8 0 15 0;
#X connect 8 0 25 0;
#X connect 9 0 2 0;
#X connect 10 0 2 1;
#X connect 11 0 10 1;
#X connect 11 0 9 1;
#X connect 12 0 9 0;
#X connect 13 0 10 0;
#X connect 14 0 11 0;
#X connect 15 0 14 0;
#X connect 19 0 2 0;
#X connect 20 0 2 1;
#X connect 21 0 20 1;
#X connect 21 0 19 1;
#X connect 22 0 19 0;
#X connect 23 0 20 0;
#X connect 24 0 21 0;
#X connect 25 0 24 0;
