#N canvas 155 81 447 621 10;
#X obj 32 34 udpreceive 12321;
#X obj 32 71 unpackOSC;
#X obj 32 103 routeOSC /blip;
#X obj 50 459 d-out~;
#X obj 70 194 f 0;
#X obj 99 193 + 1;
#X obj 126 194 % 4;
#X msg 62 170 bang;
#X obj 43 266 route 0 1 2 3;
#X obj 40 240 list trim;
#X obj 38 217 list prepend;
#X obj 137 299 tone;
#X obj 38 299 tone;
#X obj 87 299 tone;
#X obj 189 299 tone;
#X connect 0 0 1 0;
#X connect 1 0 2 0;
#X connect 2 0 10 0;
#X connect 2 0 7 0;
#X connect 4 0 5 0;
#X connect 4 0 10 1;
#X connect 5 0 6 0;
#X connect 6 0 4 1;
#X connect 7 0 4 0;
#X connect 8 0 12 0;
#X connect 8 1 13 0;
#X connect 8 2 11 0;
#X connect 8 3 14 0;
#X connect 9 0 8 0;
#X connect 10 0 9 0;
#X connect 11 0 3 0;
#X connect 11 1 3 1;
#X connect 12 0 3 0;
#X connect 12 1 3 1;
#X connect 13 0 3 0;
#X connect 13 1 3 1;
#X connect 14 0 3 0;
#X connect 14 1 3 1;
