#N canvas 0 22 485 522 10;
#X obj 58 304 osc~;
#X obj 32 81 unpack f f;
#X obj 60 276 d-smooth~;
#X obj 269 290 vline~;
#X obj 85 407 *~;
#X obj 32 370 clip~ -1 1;
#X obj 32 349 *~ 100;
#X obj 30 321 +~;
#X obj 17 179 d-smooth~;
#X obj 30 29 inlet;
#X obj 25 485 outlet~;
#X msg 263 241 1 5 \, 0 50 10;
#X obj 102 207 * 12;
#X obj 142 195 * 8;
#X obj 60 255 mtof;
#X floatatom 175 264 5 0 0 0 - - -;
#X obj 102 233 d-modes lydian 12;
#X obj 98 162 * 5;
#X obj 101 185 + 2;
#X obj 156 480 outlet~;
#X obj 91 435 d-pan~;
#X obj 131 107 t f f f;
#X connect 0 0 7 1;
#X connect 1 0 8 0;
#X connect 1 0 20 1;
#X connect 1 1 21 0;
#X connect 2 0 0 0;
#X connect 3 0 4 1;
#X connect 4 0 20 0;
#X connect 5 0 4 0;
#X connect 6 0 5 0;
#X connect 7 0 6 0;
#X connect 8 0 7 0;
#X connect 9 0 1 0;
#X connect 11 0 3 0;
#X connect 12 0 16 0;
#X connect 13 0 16 2;
#X connect 14 0 2 0;
#X connect 16 8 14 0;
#X connect 16 8 15 0;
#X connect 17 0 18 0;
#X connect 18 0 12 0;
#X connect 20 0 10 0;
#X connect 20 1 19 0;
#X connect 21 0 11 0;
#X connect 21 1 13 0;
#X connect 21 2 17 0;
